<svg xmlns="http://www.w3.org/2000/svg" viewBox="0 0 18.01 16"><defs><style>.cls-1{fill:#fff;}</style></defs><title>Asset 4</title><g id="Layer_2" data-name="Layer 2"><g id="Layer_1-2" data-name="Layer 1"><path class="cls-1" d="M3.36,8.58,0,8.81a9.31,9.31,0,0,0,.93,3.06l2.92-1.69A6.19,6.19,0,0,1,3.36,8.58Z"/><path class="cls-1" d="M10.7,12.68,11.32,16a8.63,8.63,0,0,0,5.45-4.21l-3-1.44A5.23,5.23,0,0,1,10.7,12.68Z"/><path class="cls-1" d="M18,4.55a9.31,9.31,0,0,0-1.3-2.43L11.5,6.45Z"/><path class="cls-1" d="M9.5,11.94l-.27,0a4.29,4.29,0,0,1-3.42-1.71l-1.43.83L2.88,12a7.67,7.67,0,0,0,6.35,3.37,8.69,8.69,0,0,0,.89-.05l-.45-2.4Z"/><path class="cls-1" d="M13.47,7a5.06,5.06,0,0,1,.06.69A4.34,4.34,0,0,1,13.31,9l.85.4,2.21,1a7.86,7.86,0,0,0,.52-2.79A7.43,7.43,0,0,0,16.71,6Z"/><path class="cls-1" d="M9.23,0A7.64,7.64,0,0,0,3.1,3.07L4.8,4.91,2.4,4.2a7.57,7.57,0,0,0-.83,3.45L3.3,7.54,5,7.42a4.28,4.28,0,0,1,7.22-2.88l2.6-2.17A7.63,7.63,0,0,0,9.23,0Z"/><path class="cls-1" d="M3.3,4,1.6,2.14l-.39-.42A10.39,10.39,0,0,0,.35,3.11l.55.16Z"/></g></g></svg>