<svg xmlns="http://www.w3.org/2000/svg" viewBox="0 0 86.1 76.51"><defs><style>.cls-1{fill:#41342e;}</style></defs><title>Asset 4</title><g id="Layer_2" data-name="Layer 2"><g id="Layer_1-2" data-name="Layer 1"><path class="cls-1" d="M16.09,41,0,42.11A44.3,44.3,0,0,0,4.46,56.75l14-8.09A27.81,27.81,0,0,1,16.09,41Z"/><path class="cls-1" d="M51.17,60.64l3,15.87A41.17,41.17,0,0,0,80.2,56.4L65.6,49.51A25.08,25.08,0,0,1,51.17,60.64Z"/><path class="cls-1" d="M86.1,21.76a44.18,44.18,0,0,0-6.19-11.63L55,30.86Z"/><path class="cls-1" d="M45.43,57.11c-.43,0-.85.06-1.28.06A20.47,20.47,0,0,1,27.79,49l-6.86,4-7.15,4.15A36.61,36.61,0,0,0,44.15,73.27,37.13,37.13,0,0,0,48.39,73L46.26,61.55Z"/><path class="cls-1" d="M64.4,33.32a21.22,21.22,0,0,1,.29,3.31,20.39,20.39,0,0,1-1,6.43L67.73,45l10.54,5a36.66,36.66,0,0,0,1.66-21.18Z"/><path class="cls-1" d="M44.15,0A36.59,36.59,0,0,0,14.81,14.69L23,23.48,11.47,20.09a36.31,36.31,0,0,0-4,16.5L15.76,36l7.91-.54A20.49,20.49,0,0,1,58.21,21.69L70.64,11.35A36.51,36.51,0,0,0,44.15,0Z"/><path class="cls-1" d="M15.78,19l-8.14-8.8-1.86-2a46.42,46.42,0,0,0-4.11,6.63l2.62.77Z"/></g></g></svg>